<svg width="181" height="102" viewBox="0 0 181 102" fill="none" xmlns="http://www.w3.org/2000/svg">
<path d="M21.625 74H2.125V65.5H21.625C22.2083 65.5 22.7083 65.2917 23.125 64.875C23.5417 64.4583 23.75 63.9583 23.75 63.375C23.75 62.7708 23.5417 62.375 23.125 62.1875C22.7083 62 22.2083 61.9062 21.625 61.9062H12.75C11.2708 61.9062 9.88542 61.625 8.59375 61.0625C7.30208 60.5 6.17708 59.7396 5.21875 58.7812C4.26042 57.8021 3.5 56.6667 2.9375 55.375C2.39583 54.0833 2.125 52.6979 2.125 51.2188C2.125 49.7396 2.39583 48.3542 2.9375 47.0625C3.5 45.7708 4.26042 44.6458 5.21875 43.6875C6.17708 42.7292 7.30208 41.9792 8.59375 41.4375C9.88542 40.875 11.2708 40.5938 12.75 40.5938H30.0312V49.0938H12.75C12.1667 49.0938 11.6667 49.3021 11.25 49.7188C10.8333 50.1354 10.625 50.6354 10.625 51.2188C10.625 51.8229 10.8333 52.3438 11.25 52.7812C11.6667 53.1979 12.1667 53.4062 12.75 53.4062H21.625C23.0833 53.4062 24.4583 53.6562 25.75 54.1562C27.0417 54.6354 28.1667 55.3125 29.125 56.1875C30.0833 57.0625 30.8438 58.1146 31.4062 59.3438C31.9688 60.5729 32.25 61.9167 32.25 63.375C32.25 64.8542 31.9688 66.2396 31.4062 67.5312C30.8438 68.8021 30.0833 69.9271 29.125 70.9062C28.1667 71.8646 27.0417 72.625 25.75 73.1875C24.4583 73.7292 23.0833 74 21.625 74ZM45.3438 74H36.8125V27.2188H45.3438V42C46.3646 41.2292 47.4167 40.6875 48.5 40.375C49.5833 40.0417 50.6875 39.875 51.8125 39.875C53.875 39.875 55.8125 40.2708 57.625 41.0625C59.4375 41.8333 61.0104 42.9062 62.3438 44.2812C63.6979 45.6354 64.7604 47.2292 65.5312 49.0625C66.3229 50.875 66.7188 52.8125 66.7188 54.875V74H58.125V54.875H58.1875C58.1875 54 58.0208 53.1771 57.6875 52.4062C57.3542 51.6146 56.8958 50.9271 56.3125 50.3438C55.7292 49.7604 55.0521 49.3021 54.2812 48.9688C53.5104 48.6354 52.6875 48.4688 51.8125 48.4688C50.9167 48.4688 50.0729 48.6354 49.2812 48.9688C48.4896 49.3021 47.8021 49.7604 47.2188 50.3438C46.6354 50.9271 46.1771 51.6146 45.8438 52.4062C45.5104 53.1771 45.3438 54 45.3438 54.875V74ZM82.875 31.4375C82.875 32.2292 82.7188 32.9688 82.4062 33.6562C82.1146 34.3438 81.7083 34.9479 81.1875 35.4688C80.6667 35.9688 80.0521 36.375 79.3438 36.6875C78.6562 36.9792 77.9167 37.125 77.125 37.125C76.3333 37.125 75.5833 36.9792 74.875 36.6875C74.1875 36.375 73.5833 35.9688 73.0625 35.4688C72.5625 34.9479 72.1562 34.3438 71.8438 33.6562C71.5521 32.9688 71.4062 32.2292 71.4062 31.4375C71.4062 30.6667 71.5521 29.9375 71.8438 29.25C72.1562 28.5417 72.5625 27.9375 73.0625 27.4375C73.5833 26.9167 74.1875 26.5104 74.875 26.2188C75.5833 25.9062 76.3333 25.75 77.125 25.75C77.9167 25.75 78.6562 25.9062 79.3438 26.2188C80.0521 26.5104 80.6667 26.9167 81.1875 27.4375C81.7083 27.9375 82.1146 28.5417 82.4062 29.25C82.7188 29.9375 82.875 30.6667 82.875 31.4375ZM81.4062 74H72.8125V40.5312H81.4062V74ZM96.5312 86.75H87.9375V40.5312H90L93.4062 44.5625C94.1771 43.8333 95.0208 43.1458 95.9375 42.5C96.8542 41.8542 97.8021 41.3021 98.7812 40.8438C99.7812 40.3646 100.812 39.9896 101.875 39.7188C102.938 39.4479 104.01 39.3125 105.094 39.3125C107.448 39.3125 109.656 39.7396 111.719 40.5938C113.802 41.4271 115.615 42.6146 117.156 44.1562C118.719 45.6979 119.948 47.5625 120.844 49.75C121.74 51.9167 122.188 54.3229 122.188 56.9688C122.188 59.7188 121.74 62.1979 120.844 64.4062C119.948 66.5938 118.719 68.4583 117.156 70C115.615 71.5208 113.802 72.6875 111.719 73.5C109.656 74.3125 107.448 74.7188 105.094 74.7188C104.344 74.7188 103.594 74.6354 102.844 74.4688C102.115 74.3021 101.385 74.0833 100.656 73.8125C99.9479 73.5208 99.2396 73.1979 98.5312 72.8438C97.8438 72.4896 97.1771 72.125 96.5312 71.75V86.75ZM113.625 56.9688C113.625 55.5521 113.396 54.2812 112.938 53.1562C112.5 52.0312 111.896 51.0833 111.125 50.3125C110.354 49.5208 109.448 48.9167 108.406 48.5C107.365 48.0833 106.26 47.875 105.094 47.875C103.927 47.875 102.823 48.0833 101.781 48.5C100.76 48.9167 99.8646 49.5208 99.0938 50.3125C98.3229 51.0833 97.7083 52.0312 97.25 53.1562C96.8125 54.2812 96.5938 55.5521 96.5938 56.9688C96.5938 58.3229 96.8125 59.5625 97.25 60.6875C97.7083 61.8125 98.3229 62.7708 99.0938 63.5625C99.8646 64.3542 100.76 64.9688 101.781 65.4062C102.823 65.8438 103.927 66.0625 105.094 66.0625C106.26 66.0625 107.365 65.8438 108.406 65.4062C109.448 64.9688 110.354 64.3542 111.125 63.5625C111.896 62.7708 112.5 61.8125 112.938 60.6875C113.396 59.5625 113.625 58.3229 113.625 56.9688ZM135.531 86.75H126.938V40.5312H129L132.406 44.5625C133.177 43.8333 134.021 43.1458 134.938 42.5C135.854 41.8542 136.802 41.3021 137.781 40.8438C138.781 40.3646 139.812 39.9896 140.875 39.7188C141.938 39.4479 143.01 39.3125 144.094 39.3125C146.448 39.3125 148.656 39.7396 150.719 40.5938C152.802 41.4271 154.615 42.6146 156.156 44.1562C157.719 45.6979 158.948 47.5625 159.844 49.75C160.74 51.9167 161.188 54.3229 161.188 56.9688C161.188 59.7188 160.74 62.1979 159.844 64.4062C158.948 66.5938 157.719 68.4583 156.156 70C154.615 71.5208 152.802 72.6875 150.719 73.5C148.656 74.3125 146.448 74.7188 144.094 74.7188C143.344 74.7188 142.594 74.6354 141.844 74.4688C141.115 74.3021 140.385 74.0833 139.656 73.8125C138.948 73.5208 138.24 73.1979 137.531 72.8438C136.844 72.4896 136.177 72.125 135.531 71.75V86.75ZM152.625 56.9688C152.625 55.5521 152.396 54.2812 151.938 53.1562C151.5 52.0312 150.896 51.0833 150.125 50.3125C149.354 49.5208 148.448 48.9167 147.406 48.5C146.365 48.0833 145.26 47.875 144.094 47.875C142.927 47.875 141.823 48.0833 140.781 48.5C139.76 48.9167 138.865 49.5208 138.094 50.3125C137.323 51.0833 136.708 52.0312 136.25 53.1562C135.812 54.2812 135.594 55.5521 135.594 56.9688C135.594 58.3229 135.812 59.5625 136.25 60.6875C136.708 61.8125 137.323 62.7708 138.094 63.5625C138.865 64.3542 139.76 64.9688 140.781 65.4062C141.823 65.8438 142.927 66.0625 144.094 66.0625C145.26 66.0625 146.365 65.8438 147.406 65.4062C148.448 64.9688 149.354 64.3542 150.125 63.5625C150.896 62.7708 151.5 61.8125 151.938 60.6875C152.396 59.5625 152.625 58.3229 152.625 56.9688ZM176 31.4375C176 32.2292 175.844 32.9688 175.531 33.6562C175.24 34.3438 174.833 34.9479 174.312 35.4688C173.792 35.9688 173.177 36.375 172.469 36.6875C171.781 36.9792 171.042 37.125 170.25 37.125C169.458 37.125 168.708 36.9792 168 36.6875C167.312 36.375 166.708 35.9688 166.188 35.4688C165.688 34.9479 165.281 34.3438 164.969 33.6562C164.677 32.9688 164.531 32.2292 164.531 31.4375C164.531 30.6667 164.677 29.9375 164.969 29.25C165.281 28.5417 165.688 27.9375 166.188 27.4375C166.708 26.9167 167.312 26.5104 168 26.2188C168.708 25.9062 169.458 25.75 170.25 25.75C171.042 25.75 171.781 25.9062 172.469 26.2188C173.177 26.5104 173.792 26.9167 174.312 27.4375C174.833 27.9375 175.24 28.5417 175.531 29.25C175.844 29.9375 176 30.6667 176 31.4375ZM174.531 74H165.938V40.5312H174.531V74Z" fill="#092532"/>
<line x1="81" y1="30.5" x2="169" y2="30.5" stroke="white"/>
<ellipse cx="77.8302" cy="31.2577" rx="6.83019" ry="6.25767" fill="#89C9B8"/>
<ellipse cx="170.83" cy="31.2577" rx="6.83019" ry="6.25767" fill="#89C9B8"/>
</svg>



